<svg id="flat" height="512" viewBox="0 0 512 512" width="512" xmlns="http://www.w3.org/2000/svg"><path d="m216 80h64v344h-64z" fill="#548aff"/><path d="m280 152h64v272h-64z" fill="#639aff"/><path d="m344 224h64v200h-64z" fill="#7dafff"/><path d="m408 296h64v128h-64z" fill="#f5714f"/><path d="m216 416h280v16h-280z" fill="#d1e4ff"/><path d="m176 208 14.39831-44.4301a12.693 12.693 0 0 0 -.72182-9.58951 12.693 12.693 0 0 0 -17.02949-5.67649l-4.647 2.32352-4.68629-4.68629a16 16 0 0 0 -22.62742 0l-4.68629 4.68629-4.647-2.32352a12.693 12.693 0 0 0 -17.02944 5.67647 12.693 12.693 0 0 0 -.72182 9.58951l14.39826 44.43012-22.5098 11.2549a75.05649 75.05649 0 0 0 -41.4902 67.13256v.00007a53.28992 53.28992 0 0 1 -20 41.61247 53.28992 53.28992 0 0 0 -20 41.61245v12.84688a49.5406 49.5406 0 0 0 3.54331 18.39892 49.54061 49.54061 0 0 0 45.99731 31.14175h156.91876a49.54061 49.54061 0 0 0 45.9973-31.14169 49.5406 49.5406 0 0 0 3.54332-18.39896v-12.84688a53.28992 53.28992 0 0 0 -20-41.61247 53.28992 53.28992 0 0 1 -20-41.61245v-.00007a75.05649 75.05649 0 0 0 -41.4902-67.13256z" fill="#ffc431"/><path d="m176.84473 259.57812 14.31054-7.15624-18.21093-36.42188h3.05566a8 8 0 0 0 0-16h-48a8 8 0 0 0 0 16h3.05566l-18.21093 36.42188 14.31054 7.15624 21.78907-43.57812h6.11132z" fill="#ffa100"/><path d="m152 312h24v-16h-16v-16h-16v17.37622a23.99787 23.99787 0 0 0 8 46.62378 8 8 0 0 1 0 16h-24v16h16v16h16v-17.37622a23.99787 23.99787 0 0 0 -8-46.62378 8 8 0 0 1 0-16z" fill="#ffd873"/></svg>